<svg width="696" height="509" viewBox="0 0 696 509" fill="none" xmlns="http://www.w3.org/2000/svg">
<path fill-rule="evenodd" clip-rule="evenodd" d="M559.602 67.4219C549.772 41.2938 525.583 23.7851 499.534 29.3422C482 33.0827 471.972 40.3839 466.103 48.6292C460.064 57.1125 457.276 68.2213 457.346 81.4031C457.488 108.112 469.357 138.835 480.243 159.056L495.187 184.394L512.191 205.977C516.973 212.046 515.93 220.843 509.86 225.625C503.791 230.407 494.994 229.363 490.212 223.294L472.625 200.971C472.237 200.479 471.882 199.96 471.563 199.42L457.236 175.126C454.348 172.951 449.605 170.356 442.919 167.718C435.261 164.697 426.02 161.993 416.192 159.87C396.19 155.549 375.675 154.04 362.666 156.078C301.879 165.599 262.748 209.933 238.398 264.905C214.033 319.91 205.727 383.118 205.664 424.333C205.627 448.368 213.593 461.957 222.385 469.705C231.6 477.827 243.263 480.878 252.203 480.878H342.768C366.853 480.878 383.277 480.831 393.839 479.111C397.176 478.567 399.162 477.959 400.261 477.522C400.331 476.97 400.433 476.422 400.568 475.881C401.952 470.346 401.27 466.884 400.248 464.611C399.151 462.168 397.041 459.751 393.55 457.49C386.188 452.721 375.357 450.409 367.364 450.069C360.502 449.777 354.867 444.548 354.064 437.727C353.261 430.906 357.528 424.511 364.134 422.633C405.315 410.929 415.609 386.767 416.49 380.702C417.331 374.905 421.694 370.246 427.423 369.027C433.152 367.808 439.034 370.287 442.163 375.238L508.911 480.878H543.577C544.758 480.859 545.897 480.841 546.998 480.823C552.732 480.733 557.423 480.659 561.462 480.451C565.839 480.225 568.581 479.87 570.312 479.456C570.312 479.397 570.313 479.337 570.313 479.275C570.313 477.903 570.514 476.538 570.911 475.225C572.221 470.894 571.663 467.925 570.432 465.465C569.008 462.618 566.152 459.486 561.495 456.365C552.023 450.017 538.579 446.033 528.923 444.514C523.024 443.586 518.364 439.016 517.321 433.136C516.278 427.257 519.082 421.363 524.302 418.463L524.304 418.462C524.354 418.425 525.844 417.339 528.224 413.389C530.439 409.714 532.669 404.838 534.782 399.224C539 388.02 542.172 375.448 543.762 367.403C544.918 361.553 549.656 357.079 555.562 356.259C615.06 347.995 652.929 322.601 667.329 308.961C663.081 263.698 652.595 233.63 640.581 214.09C630.215 197.231 618.864 185.662 608.725 178.765C598.229 171.625 590.497 170.404 586.691 171.063C582.345 171.816 577.899 170.476 574.694 167.446C571.488 164.417 569.899 160.054 570.405 155.672C573.549 128.461 570.984 97.6778 559.602 67.4219ZM570.186 480.931C570.186 480.931 570.187 480.923 570.192 480.909C570.188 480.924 570.186 480.931 570.186 480.931ZM440.123 137.168C434.035 119.817 429.465 100.343 429.365 81.5519C429.275 64.6009 432.823 47.1299 443.307 32.4021C453.961 17.4362 470.643 6.89477 493.696 1.97687C530.73 -5.92371 561.846 14.5784 578.407 42.2842C590.015 36.1422 602.883 32.1421 615.723 30.8235C634.091 28.9373 653.596 32.4695 669.001 44.6677C684.707 57.1042 694.088 76.9084 695.012 103.279C695.92 129.237 688.728 162.102 671.153 202.873C671.137 202.921 671.119 202.975 671.099 203.034C671.068 203.127 671.032 203.232 670.992 203.345C670.661 204.291 670.204 205.427 669.5 206.777C669.364 207.037 669.222 207.301 669.072 207.568C682.278 232.361 692.102 266.575 695.76 312.973C696.053 316.694 694.847 320.378 692.411 323.206C678.036 339.887 635.673 370.964 569.07 382.47C567.103 390.529 564.359 400.078 560.969 409.082C559.269 413.598 557.336 418.168 555.165 422.442C562.621 425.064 570.284 428.572 577.072 433.121C584.177 437.882 591.152 444.338 595.458 452.949C599.69 461.411 600.889 471.077 598.242 481.368C597.993 486.322 596.78 491.666 593.344 496.419C589.335 501.966 583.744 504.72 578.669 506.183C573.787 507.59 568.289 508.117 562.904 508.395C558.315 508.631 553.008 508.714 547.283 508.804C546.179 508.821 545.059 508.838 543.925 508.857C543.847 508.859 543.77 508.859 543.692 508.859H501.202C496.403 508.859 491.938 506.399 489.374 502.342L431.963 411.479C426.244 419.041 418.371 426.685 407.944 433.484C408.218 433.656 408.491 433.829 408.762 434.005C415.487 438.361 421.91 444.551 425.77 453.139C429.523 461.489 430.336 470.962 428.068 481.168C427.557 488.701 423.98 495.136 417.826 499.608C412.124 503.752 404.983 505.645 398.338 506.728C385.244 508.861 366.498 508.86 344.183 508.859H252.203C237.751 508.859 219.107 504.114 203.884 490.697C191.804 480.05 182.73 464.693 179.243 444.011C168.514 447.364 156.385 449.917 143.935 450.572C129.715 451.625 116.502 450.325 104.27 446.919C77.9835 439.597 57.9394 423.018 43.0244 402.752C13.631 362.814 2.61691 306.605 1.00493 267.659C-0.785278 224.409 8.66136 192.471 25.084 171.259C41.6472 149.865 64.5903 140.441 86.5717 141.663C108.288 142.87 128.752 154.512 140.008 174.183C151.442 194.165 152.31 220.419 138.957 248.892C138.761 249.31 138.544 249.718 138.308 250.115C132.826 259.31 126.841 268.612 120.996 277.697C120.248 278.86 119.502 280.02 118.759 281.175C112.151 291.459 105.794 301.463 100.211 311.268C88.9302 331.081 82.0635 348.031 81.9064 362.321C83.5266 382.93 89.0337 396.288 95.7697 404.919C102.472 413.506 111.21 418.473 121.262 420.912C127.899 422.523 135.023 423 142.226 422.64C152.872 421.819 164.697 419.303 177.83 414.634C179.071 370.823 188.343 308.817 212.814 253.573C239.158 194.099 284.376 140.018 358.336 128.434C376.165 125.642 400.498 127.853 422.1 132.519C428.246 133.847 434.321 135.405 440.123 137.168ZM54.3301 368.081C54.191 366.694 54.0681 365.288 53.9615 363.864C53.9355 363.517 53.9225 363.169 53.9225 362.82C53.9225 340.631 64.1517 318.048 75.8952 297.423C81.8909 286.893 88.6202 276.318 95.2194 266.048C95.9699 264.881 96.7184 263.717 97.4641 262.558C103.206 253.632 108.788 244.955 113.909 236.398C123.843 214.828 121.737 198.591 115.722 188.08C109.473 177.16 97.8829 170.316 85.019 169.601C72.4204 168.901 58.2571 174.119 47.2092 188.389C36.0207 202.84 27.3514 227.588 28.9621 266.502C30.2129 296.721 37.6259 336.303 54.3301 368.081ZM650.417 179.774C663.256 147.129 667.682 122.394 667.048 104.258C666.346 84.2192 659.568 72.8894 651.631 66.6043C643.392 60.0809 631.771 57.3038 618.581 58.6582C608.614 59.6818 598.433 63.0257 589.454 68.1361C597.699 94.0877 600.512 120.064 599.39 144.169C607.892 146.105 616.448 150.178 624.462 155.629C633.274 161.623 642.083 169.695 650.417 179.774Z" fill="#FFCE4F"/>
<path d="M609.917 254.578C609.917 267.704 599.277 278.344 586.152 278.344C573.027 278.344 562.387 267.704 562.387 254.578C562.387 241.453 573.027 230.813 586.152 230.813C599.277 230.813 609.917 241.453 609.917 254.578Z" fill="#FFCE4F"/>
</svg>
